{"title":"The Hunger Games Catching Fire 2013 IMAX Edition BDRip 720p GORE","uid":9718420,"size":11936176371,"categoryP":"video","categoryS":"hd___movies","magnet":"?xt=urn:btih:2c26d4409d8708944381650119a9feb71cc5e1f0&amp;dn=The+Hunger+Games+Catching+Fire+2013+IMAX+Edition+BDRip+720p+GORE&amp;tr=udp%3A%2F%2Ftracker.openbittorrent.com%3A80&amp;tr=udp%3A%2F%2Fopen.demonii.com%3A1337&amp;tr=udp%3A%2F%2Ftracker.coppersurfer.tk%3A6969&amp;tr=udp%3A%2F%2Fexodus.desync.com%3A6969","seeders":4,"leechers":0,"uploader":"ABSTAIN","files":1,"time":1394183800,"description":"C:/GORESEWAGE/The Hunger Games Catching Fire 2013 IMAX Edition BDRip 720p GORESEWAGE.mkv\n  General\n    Unique ID : 224401698335211335412568218270103966738 (0xA8D231EE1C0BD7D1B199577D13BF1412)\n    Complete name : C:/GORESEWAGE/The Hunger Games Catching Fire 2013 IMAX Edition BDRip 720p GORESEWAGE.mkv\n    Format : Matroska\n    Format version : Version 4 / Version 2\n    File size : 11.1 GiB\n    Duration : 2h 26mn\n    Overall bit rate : 10.9 Mbps\n    Movie name : The Hunger Games Catching Fire 2013 IMAX Edition BDRip 720p GORESEWAGE\n    Encoded date : UTC 2014-03-07 07:47:23\n    Writing application : mkvmerge v6.8.0 ('Theme for Great Cities') 64bit built on Mar  2 2014 21:34:26\n    Writing library : libebml v1.3.0 + libmatroska v1.4.1\n    Attachment : Yes\n  Video #1\n    ID : 1\n    Format : AVC\n    Format/Info : Advanced Video Codec\n    Format profile : &lt;a class=&quot;__cf_email__&quot; href=&quot;/cdn-cgi/l/email-protection&quot; data-cfemail=&quot;1058797778505c243e21&quot;&gt;[email&amp;#160;protected]&lt;/a&gt;&lt;script cf-hash='f9e31' type=&quot;text/javascript&quot;&gt;\n/* &lt;![CDATA[ */!function(){try{var t=&quot;currentScript&quot;in document?document.currentScript:function(){for(var t=document.getElementsByTagName(&quot;script&quot;),e=t.length;e--;)if(t[e].getAttribute(&quot;cf-hash&quot;))return t[e]}();if(t&amp;&amp;t.previousSibling){var e,r,n,i,c=t.previousSibling,a=c.getAttribute(&quot;data-cfemail&quot;);if(a){for(e=&quot;&quot;,r=parseInt(a.substr(0,2),16),n=2;a.length-n;n+=2)i=parseInt(a.substr(n,2),16)^r,e+=String.fromCharCode(i);e=document.createTextNode(e),c.parentNode.replaceChild(e,c)}}}catch(u){}}();/* ]]&gt; */&lt;/script&gt;\n    Format settings, CABAC : Yes\n    Format settings, ReFrames : 9 frames\n    Codec ID : V_MPEG4/ISO/AVC\n    Duration : 2h 26mn\n    Bit rate : 8 325 Kbps\n    Width : 1 280 pixels\n    Height : 720 pixels\n    Display aspect ratio : 16:9\n    Frame rate mode : Constant\n    Frame rate : 23.976 fps\n    Color space : YUV\n    Chroma subsampling : 4:2:0\n    Bit depth : 8 bits\n    Scan type : Progressive\n    Bits/(Pixel*Frame) : 0.377\n    Stream size : 8.50 GiB (76%)\n    Title : The Hunger Games Catching Fire 2013 IMAX Edition BDRip 720p GORESEWAGE\n    Writing library : x264 core 140 r2377 1ca7bb9\n    Encoding settings : cabac=1 / ref=9 / deblock=1:-3:-3 / analyse=0x3:0x133 / me=umh / subme=10 / psy=1 / psy_rd=1.10:0.00 / mixed_ref=1 / me_range=48 / chroma_me=1 / trellis=2 / 8x8dct=1 / cqm=0 / deadzone=21,11 / fast_pskip=0 / chroma_qp_offset=-2 / threads=12 / lookahead_threads=2 / sliced_threads=0 / nr=0 / decimate=0 / interlaced=0 / bluray_compat=0 / constrained_intra=0 / bframes=8 / b_pyramid=2 / b_adapt=2 / b_bias=0 / direct=3 / weightb=1 / open_gop=0 / weightp=2 / keyint=240 / keyint_min=23 / scenecut=40 / intra_refresh=0 / rc_lookahead=60 / rc=crf / mbtree=0 / crf=15.0 / qcomp=0.60 / qpmin=0 / qpmax=69 / qpstep=4 / vbv_maxrate=62500 / vbv_bufsize=78125 / crf_max=0.0 / nal_hrd=none / filler=0 / ip_ratio=1.30 / pb_ratio=1.10 / aq=1:0.90\n    Language : English\n    Default : Yes\n    Forced : No\n  Audio #2\n    ID : 2\n    Format : AC-3\n    Format/Info : Audio Coding 3\n    Mode extension : CM (complete main)\n    Format settings, Endianness : Big\n    Codec ID : A_AC3\n    Duration : 2h 26mn\n    Bit rate mode : Constant\n    Bit rate : 384 Kbps\n    Channel count : 6 channels\n    Channel positions : Front: L C R, Side: L R, LFE\n    Sampling rate : 48.0 KHz\n    Bit depth : 16 bits\n    Compression mode : Lossy\n    Stream size : 402 MiB (4%)\n    Title : Dub iTunes Russia\n    Language : Russian\n    Default : Yes\n    Forced : No\n  Audio #3\n    ID : 3\n    Format : DTS\n    Format/Info : Digital Theater Systems\n    Mode : 16\n    Format settings, Endianness : Big\n    Codec ID : A_DTS\n    Duration : 2h 26mn\n    Bit rate mode : Constant\n    Bit rate : 1 509 Kbps\n    Channel count : 6 channels\n    Channel positions : Front: L C R, Side: L R, LFE\n    Sampling rate : 48.0 KHz\n    Bit depth : 24 bits\n    Compression mode : Lossy\n    Stream size : 1.54 GiB (14%)\n    Title : Original\n    Language : English\n    Default : No\n    Forced : No\n  Audio #4\n    ID : 4\n    Format : AC-3\n    Format/Info : Audio Coding 3\n    Format profile : Dolby Digital\n    Mode extension : CM (complete main)\n    Format settings, Endianness : Big\n    Codec ID : A_AC3\n    Duration : 2h 26mn\n    Bit rate mode : Constant\n    Bit rate : 224 Kbps\n    Channel count : 2 channels\n    Channel positions : Front: L R\n    Sampling rate : 48.0 KHz\n    Bit depth : 16 bits\n    Compression mode : Lossy\n    Stream size : 234 MiB (2%)\n    Title : Description\n    Language : English\n    Default : No\n    Forced : No\n  Audio #5\n    ID : 5\n    Format : AC-3\n    Format/Info : Audio Coding 3\n    Format profile : Dolby Digital\n    Mode extension : CM (complete main)\n    Format settings, Endianness : Big\n    Codec ID : A_AC3\n    Duration : 2h 26mn\n    Bit rate mode : Constant\n    Bit rate : 224 Kbps\n    Channel count : 2 channels\n    Channel positions : Front: L R\n    Sampling rate : 48.0 KHz\n    Bit depth : 16 bits\n    Compression mode : Lossy\n    Stream size : 234 MiB (2%)\n    Title : Commentary by diector Francis Lawrence &amp; producer Nina Jacobson\n    Language : English\n    Default : No\n    Forced : No\n  Text #6\n    ID : 6\n    Format : UTF-8\n    Codec ID : S_TEXT/UTF8\n    Codec ID/Info : UTF-8 Plain Text\n    Title : Full\n    Language : Russian\n    Default : No\n    Forced : No\n  Text #7\n    ID : 7\n    Format : UTF-8\n    Codec ID : S_TEXT/UTF8\n    Codec ID/Info : UTF-8 Plain Text\n    Title : Full\n    Language : English\n    Default : No\n    Forced : No\n  Text #8\n    ID : 8\n    Format : UTF-8\n    Codec ID : S_TEXT/UTF8\n    Codec ID/Info : UTF-8 Plain Text\n    Title : SDH\n    Language : English\n    Default : No\n    Forced : No\n  Text #9\n    ID : 9\n    Format : PGS\n    Muxing mode : zlib\n    Codec ID : S_HDMV/PGS\n    Codec ID/Info : The same subtitle format used on BDs/HD-DVDs\n    Title : Full\n    Language : Spanish\n    Default : No\n    Forced : No\n  Menu\n    00:00:00.000 : en:00:00:00.000\n    00:11:24.684 : en:00:11:24.684\n    00:16:48.049 : en:00:16:48.049\n    00:25:38.078 : en:00:25:38.078\n    00:35:51.649 : en:00:35:51.649\n    00:44:22.576 : en:00:44:22.576\n    00:52:12.921 : en:00:52:12.921\n    01:01:11.376 : en:01:01:11.376\n    01:08:12.213 : en:01:08:12.213\n    01:16:48.938 : en:01:16:48.938\n    01:22:39.663 : en:01:22:39.663\n    01:29:21.731 : en:01:29:21.731\n    01:40:43.913 : en:01:40:43.913\n    01:50:47.766 : en:01:50:47.766\n    02:02:46.984 : en:02:02:46.984\n    02:09:58.958 : en:02:09:58.958","torrent":{"xt":"urn:btih:2c26d4409d8708944381650119a9feb71cc5e1f0","amp;dn":"The+Hunger+Games+Catching+Fire+2013+IMAX+Edition+BDRip+720p+GORE","amp;tr":["udp%3A%2F%2Ftracker.openbittorrent.com%3A80","udp%3A%2F%2Fopen.demonii.com%3A1337","udp%3A%2F%2Ftracker.coppersurfer.tk%3A6969","udp%3A%2F%2Fexodus.desync.com%3A6969"],"infoHash":"2c26d4409d8708944381650119a9feb71cc5e1f0","infoHashBuffer":{"type":"Buffer","data":[44,38,212,64,157,135,8,148,67,129,101,1,25,169,254,183,28,197,225,240]},"announce":[],"urlList":[]}}